<svg width="36" height="36" viewBox="0 0 36 36" fill="none" xmlns="http://www.w3.org/2000/svg">
<path d="M18.6412 4.22734C18.562 4.13483 18.4637 4.06057 18.3531 4.00965C18.2425 3.95874 18.1221 3.93237 18.0004 3.93237C17.8786 3.93237 17.7582 3.95874 17.6476 4.00965C17.537 4.06057 17.4387 4.13483 17.3595 4.22734C15.1334 6.83101 7.875 15.8324 7.875 22.5002C7.875 28.7137 11.7872 32.6252 18 32.6252C24.2128 32.6252 28.125 28.7137 28.125 22.5002C28.125 15.8324 20.8666 6.83101 18.6412 4.22734V4.22734ZM19.125 28.9689C18.9899 28.9692 18.8566 28.937 18.7365 28.8751C18.6164 28.8132 18.5129 28.7233 18.4348 28.613C18.3566 28.5028 18.3061 28.3754 18.2875 28.2415C18.2688 28.1077 18.2826 27.9713 18.3277 27.8439C18.3852 27.6777 18.4937 27.5338 18.6377 27.4328C18.7818 27.3318 18.954 27.2788 19.1299 27.2814C20.2468 27.279 21.3172 26.8343 22.1069 26.0445C22.8966 25.2548 23.3413 24.1844 23.3438 23.0676C23.3412 22.8917 23.3942 22.7194 23.4952 22.5754C23.5961 22.4314 23.74 22.3228 23.9062 22.2653C24.0337 22.2203 24.17 22.2065 24.3039 22.2251C24.4377 22.2438 24.5651 22.2943 24.6754 22.3724C24.7857 22.4506 24.8755 22.554 24.9374 22.6742C24.9994 22.7943 25.0315 22.9275 25.0312 23.0627C25.0296 24.6286 24.4068 26.1299 23.2995 27.2372C22.1922 28.3444 20.6909 28.9672 19.125 28.9689Z" fill="white"/>
</svg>
