<svg width="36" height="36" viewBox="0 0 36 36" fill="none" xmlns="http://www.w3.org/2000/svg">
<path d="M33 19.5C33 21.165 31.665 22.5 30 22.5H6C5.20435 22.5 4.44129 22.1839 3.87868 21.6213C3.31607 21.0587 3 20.2956 3 19.5C3 18.7044 3.31607 17.9413 3.87868 17.3787C4.44129 16.8161 5.20435 16.5 6 16.5H19.5L23.25 19.5L27 16.5H30C30.7956 16.5 31.5587 16.8161 32.1213 17.3787C32.6839 17.9413 33 18.7044 33 19.5ZM18 4.5C4.5 4.5 4.5 13.5 4.5 13.5H31.5C31.5 13.5 31.5 4.5 18 4.5ZM4.5 27C4.5 29.49 6.51 31.5 9 31.5H27C29.49 31.5 31.5 29.49 31.5 27V25.5H4.5V27Z" fill="white"/>
</svg>
