<svg width="36" height="36" viewBox="0 0 36 36" fill="none" xmlns="http://www.w3.org/2000/svg">
<path d="M32.9999 7.63995C31.6599 4.88995 27.7999 2.63995 23.3099 3.94995C21.1643 4.56969 19.2924 5.89873 17.9999 7.71995C16.7074 5.89873 14.8354 4.56969 12.6899 3.94995C8.18987 2.65995 4.33987 4.88995 2.99987 7.63995C1.11987 11.4899 1.89987 15.8199 5.31987 20.5099C7.99987 24.1799 11.8299 27.8999 17.3899 32.2199C17.5656 32.357 17.782 32.4314 18.0049 32.4314C18.2277 32.4314 18.4442 32.357 18.6199 32.2199C24.1699 27.9099 28.0099 24.2199 30.6899 20.5099C34.0999 15.8199 34.8799 11.4899 32.9999 7.63995V7.63995Z" fill="white"/>
</svg>
